<svg viewBox="0 0 516 496" xmlns="http://www.w3.org/2000/svg">
<rect x="100" y="80" width="36" height="36" rx="3" fill="rgba(0,0,0,0.02)"/>
<rect x="136" y="80" width="36" height="36" rx="3" fill="rgba(40,108,68,0.55)"/>
<text x="154.0" y="102.0" font-family="serif" font-size="11" fill="#fcfcfc" text-anchor="middle">1</text>
<rect x="172" y="80" width="36" height="36" rx="3" fill="rgba(40,108,68,0.55)"/>
<text x="190.0" y="102.0" font-family="serif" font-size="11" fill="#fcfcfc" text-anchor="middle">1</text>
<rect x="208" y="80" width="36" height="36" rx="3" fill="rgba(40,108,68,0.55)"/>
<text x="226.0" y="102.0" font-family="serif" font-size="11" fill="#fcfcfc" text-anchor="middle">1</text>
<rect x="244" y="80" width="36" height="36" rx="3" fill="rgba(0,0,0,0.02)"/>
<rect x="280" y="80" width="36" height="36" rx="3" fill="rgba(0,0,0,0.02)"/>
<rect x="316" y="80" width="36" height="36" rx="3" fill="rgba(0,0,0,0.02)"/>
<rect x="352" y="80" width="36" height="36" rx="3" fill="rgba(0,0,0,0.02)"/>
<rect x="388" y="80" width="36" height="36" rx="3" fill="rgba(0,0,0,0.02)"/>
<rect x="424" y="80" width="36" height="36" rx="3" fill="rgba(0,0,0,0.02)"/>
<rect x="460" y="80" width="36" height="36" rx="3" fill="rgba(40,108,68,0.55)"/>
<text x="478.0" y="102.0" font-family="serif" font-size="11" fill="#fcfcfc" text-anchor="middle">1</text>
<rect x="100" y="116" width="36" height="36" rx="3" fill="rgba(40,108,68,0.55)"/>
<text x="118.0" y="138.0" font-family="serif" font-size="11" fill="#fcfcfc" text-anchor="middle">1</text>
<rect x="136" y="116" width="36" height="36" rx="3" fill="rgba(0,0,0,0.02)"/>
<rect x="172" y="116" width="36" height="36" rx="3" fill="rgba(0,0,0,0.02)"/>
<rect x="208" y="116" width="36" height="36" rx="3" fill="rgba(0,0,0,0.02)"/>
<rect x="244" y="116" width="36" height="36" rx="3" fill="rgba(40,108,68,0.55)"/>
<text x="262.0" y="138.0" font-family="serif" font-size="11" fill="#fcfcfc" text-anchor="middle">1</text>
<rect x="280" y="116" width="36" height="36" rx="3" fill="rgba(40,108,68,0.55)"/>
<text x="298.0" y="138.0" font-family="serif" font-size="11" fill="#fcfcfc" text-anchor="middle">1</text>
<rect x="316" y="116" width="36" height="36" rx="3" fill="rgba(0,0,0,0.02)"/>
<rect x="352" y="116" width="36" height="36" rx="3" fill="rgba(40,108,68,0.55)"/>
<text x="370.0" y="138.0" font-family="serif" font-size="11" fill="#fcfcfc" text-anchor="middle">1</text>
<rect x="388" y="116" width="36" height="36" rx="3" fill="rgba(0,0,0,0.02)"/>
<rect x="424" y="116" width="36" height="36" rx="3" fill="rgba(40,108,68,0.80)"/>
<text x="442.0" y="138.0" font-family="serif" font-size="11" fill="#fcfcfc" text-anchor="middle">2</text>
<rect x="460" y="116" width="36" height="36" rx="3" fill="rgba(40,108,68,0.80)"/>
<text x="478.0" y="138.0" font-family="serif" font-size="11" fill="#fcfcfc" text-anchor="middle">2</text>
<rect x="100" y="152" width="36" height="36" rx="3" fill="rgba(40,108,68,0.55)"/>
<text x="118.0" y="174.0" font-family="serif" font-size="11" fill="#fcfcfc" text-anchor="middle">1</text>
<rect x="136" y="152" width="36" height="36" rx="3" fill="rgba(0,0,0,0.02)"/>
<rect x="172" y="152" width="36" height="36" rx="3" fill="rgba(0,0,0,0.02)"/>
<rect x="208" y="152" width="36" height="36" rx="3" fill="rgba(40,108,68,0.80)"/>
<text x="226.0" y="174.0" font-family="serif" font-size="11" fill="#fcfcfc" text-anchor="middle">2</text>
<rect x="244" y="152" width="36" height="36" rx="3" fill="rgba(40,108,68,0.55)"/>
<text x="262.0" y="174.0" font-family="serif" font-size="11" fill="#fcfcfc" text-anchor="middle">1</text>
<rect x="280" y="152" width="36" height="36" rx="3" fill="rgba(40,108,68,0.80)"/>
<text x="298.0" y="174.0" font-family="serif" font-size="11" fill="#fcfcfc" text-anchor="middle">2</text>
<rect x="316" y="152" width="36" height="36" rx="3" fill="rgba(40,108,68,0.80)"/>
<text x="334.0" y="174.0" font-family="serif" font-size="11" fill="#fcfcfc" text-anchor="middle">2</text>
<rect x="352" y="152" width="36" height="36" rx="3" fill="rgba(40,108,68,0.55)"/>
<text x="370.0" y="174.0" font-family="serif" font-size="11" fill="#fcfcfc" text-anchor="middle">1</text>
<rect x="388" y="152" width="36" height="36" rx="3" fill="rgba(0,0,0,0.02)"/>
<rect x="424" y="152" width="36" height="36" rx="3" fill="rgba(40,108,68,0.55)"/>
<text x="442.0" y="174.0" font-family="serif" font-size="11" fill="#fcfcfc" text-anchor="middle">1</text>
<rect x="460" y="152" width="36" height="36" rx="3" fill="rgba(0,0,0,0.02)"/>
<rect x="100" y="188" width="36" height="36" rx="3" fill="rgba(40,108,68,0.55)"/>
<text x="118.0" y="210.0" font-family="serif" font-size="11" fill="#fcfcfc" text-anchor="middle">1</text>
<rect x="136" y="188" width="36" height="36" rx="3" fill="rgba(0,0,0,0.02)"/>
<rect x="172" y="188" width="36" height="36" rx="3" fill="rgba(40,108,68,0.80)"/>
<text x="190.0" y="210.0" font-family="serif" font-size="11" fill="#fcfcfc" text-anchor="middle">2</text>
<rect x="208" y="188" width="36" height="36" rx="3" fill="rgba(0,0,0,0.02)"/>
<rect x="244" y="188" width="36" height="36" rx="3" fill="rgba(40,108,68,0.55)"/>
<text x="262.0" y="210.0" font-family="serif" font-size="11" fill="#fcfcfc" text-anchor="middle">1</text>
<rect x="280" y="188" width="36" height="36" rx="3" fill="rgba(0,0,0,0.02)"/>
<rect x="316" y="188" width="36" height="36" rx="3" fill="rgba(0,0,0,0.02)"/>
<rect x="352" y="188" width="36" height="36" rx="3" fill="rgba(0,0,0,0.02)"/>
<rect x="388" y="188" width="36" height="36" rx="3" fill="rgba(40,108,68,0.55)"/>
<text x="406.0" y="210.0" font-family="serif" font-size="11" fill="#fcfcfc" text-anchor="middle">1</text>
<rect x="424" y="188" width="36" height="36" rx="3" fill="rgba(0,0,0,0.02)"/>
<rect x="460" y="188" width="36" height="36" rx="3" fill="rgba(40,108,68,0.55)"/>
<text x="478.0" y="210.0" font-family="serif" font-size="11" fill="#fcfcfc" text-anchor="middle">1</text>
<rect x="100" y="224" width="36" height="36" rx="3" fill="rgba(0,0,0,0.02)"/>
<rect x="136" y="224" width="36" height="36" rx="3" fill="rgba(40,108,68,0.55)"/>
<text x="154.0" y="246.0" font-family="serif" font-size="11" fill="#fcfcfc" text-anchor="middle">1</text>
<rect x="172" y="224" width="36" height="36" rx="3" fill="rgba(40,108,68,0.55)"/>
<text x="190.0" y="246.0" font-family="serif" font-size="11" fill="#fcfcfc" text-anchor="middle">1</text>
<rect x="208" y="224" width="36" height="36" rx="3" fill="rgba(40,108,68,0.55)"/>
<text x="226.0" y="246.0" font-family="serif" font-size="11" fill="#fcfcfc" text-anchor="middle">1</text>
<rect x="244" y="224" width="36" height="36" rx="3" fill="rgba(0,0,0,0.02)"/>
<rect x="280" y="224" width="36" height="36" rx="3" fill="rgba(0,0,0,0.02)"/>
<rect x="316" y="224" width="36" height="36" rx="3" fill="rgba(0,0,0,0.02)"/>
<rect x="352" y="224" width="36" height="36" rx="3" fill="rgba(0,0,0,0.02)"/>
<rect x="388" y="224" width="36" height="36" rx="3" fill="rgba(0,0,0,0.02)"/>
<rect x="424" y="224" width="36" height="36" rx="3" fill="rgba(0,0,0,0.02)"/>
<rect x="460" y="224" width="36" height="36" rx="3" fill="rgba(40,108,68,0.55)"/>
<text x="478.0" y="246.0" font-family="serif" font-size="11" fill="#fcfcfc" text-anchor="middle">1</text>
<rect x="100" y="260" width="36" height="36" rx="3" fill="rgba(0,0,0,0.02)"/>
<rect x="136" y="260" width="36" height="36" rx="3" fill="rgba(40,108,68,0.55)"/>
<text x="154.0" y="282.0" font-family="serif" font-size="11" fill="#fcfcfc" text-anchor="middle">1</text>
<rect x="172" y="260" width="36" height="36" rx="3" fill="rgba(40,108,68,0.80)"/>
<text x="190.0" y="282.0" font-family="serif" font-size="11" fill="#fcfcfc" text-anchor="middle">2</text>
<rect x="208" y="260" width="36" height="36" rx="3" fill="rgba(0,0,0,0.02)"/>
<rect x="244" y="260" width="36" height="36" rx="3" fill="rgba(0,0,0,0.02)"/>
<rect x="280" y="260" width="36" height="36" rx="3" fill="rgba(0,0,0,0.02)"/>
<rect x="316" y="260" width="36" height="36" rx="3" fill="rgba(40,108,68,0.55)"/>
<text x="334.0" y="282.0" font-family="serif" font-size="11" fill="#fcfcfc" text-anchor="middle">1</text>
<rect x="352" y="260" width="36" height="36" rx="3" fill="rgba(0,0,0,0.02)"/>
<rect x="388" y="260" width="36" height="36" rx="3" fill="rgba(0,0,0,0.02)"/>
<rect x="424" y="260" width="36" height="36" rx="3" fill="rgba(40,108,68,0.80)"/>
<text x="442.0" y="282.0" font-family="serif" font-size="11" fill="#fcfcfc" text-anchor="middle">2</text>
<rect x="460" y="260" width="36" height="36" rx="3" fill="rgba(0,0,0,0.02)"/>
<rect x="100" y="296" width="36" height="36" rx="3" fill="rgba(0,0,0,0.02)"/>
<rect x="136" y="296" width="36" height="36" rx="3" fill="rgba(0,0,0,0.02)"/>
<rect x="172" y="296" width="36" height="36" rx="3" fill="rgba(40,108,68,0.80)"/>
<text x="190.0" y="318.0" font-family="serif" font-size="11" fill="#fcfcfc" text-anchor="middle">2</text>
<rect x="208" y="296" width="36" height="36" rx="3" fill="rgba(0,0,0,0.02)"/>
<rect x="244" y="296" width="36" height="36" rx="3" fill="rgba(0,0,0,0.02)"/>
<rect x="280" y="296" width="36" height="36" rx="3" fill="rgba(40,108,68,0.55)"/>
<text x="298.0" y="318.0" font-family="serif" font-size="11" fill="#fcfcfc" text-anchor="middle">1</text>
<rect x="316" y="296" width="36" height="36" rx="3" fill="rgba(0,0,0,0.02)"/>
<rect x="352" y="296" width="36" height="36" rx="3" fill="rgba(40,108,68,0.55)"/>
<text x="370.0" y="318.0" font-family="serif" font-size="11" fill="#fcfcfc" text-anchor="middle">1</text>
<rect x="388" y="296" width="36" height="36" rx="3" fill="rgba(0,0,0,0.02)"/>
<rect x="424" y="296" width="36" height="36" rx="3" fill="rgba(0,0,0,0.02)"/>
<rect x="460" y="296" width="36" height="36" rx="3" fill="rgba(0,0,0,0.02)"/>
<rect x="100" y="332" width="36" height="36" rx="3" fill="rgba(0,0,0,0.02)"/>
<rect x="136" y="332" width="36" height="36" rx="3" fill="rgba(40,108,68,0.55)"/>
<text x="154.0" y="354.0" font-family="serif" font-size="11" fill="#fcfcfc" text-anchor="middle">1</text>
<rect x="172" y="332" width="36" height="36" rx="3" fill="rgba(40,108,68,0.55)"/>
<text x="190.0" y="354.0" font-family="serif" font-size="11" fill="#fcfcfc" text-anchor="middle">1</text>
<rect x="208" y="332" width="36" height="36" rx="3" fill="rgba(0,0,0,0.02)"/>
<rect x="244" y="332" width="36" height="36" rx="3" fill="rgba(0,0,0,0.02)"/>
<rect x="280" y="332" width="36" height="36" rx="3" fill="rgba(0,0,0,0.02)"/>
<rect x="316" y="332" width="36" height="36" rx="3" fill="rgba(40,108,68,0.55)"/>
<text x="334.0" y="354.0" font-family="serif" font-size="11" fill="#fcfcfc" text-anchor="middle">1</text>
<rect x="352" y="332" width="36" height="36" rx="3" fill="rgba(0,0,0,0.02)"/>
<rect x="388" y="332" width="36" height="36" rx="3" fill="rgba(0,0,0,0.02)"/>
<rect x="424" y="332" width="36" height="36" rx="3" fill="rgba(40,108,68,0.55)"/>
<text x="442.0" y="354.0" font-family="serif" font-size="11" fill="#fcfcfc" text-anchor="middle">1</text>
<rect x="460" y="332" width="36" height="36" rx="3" fill="rgba(0,0,0,0.02)"/>
<rect x="100" y="368" width="36" height="36" rx="3" fill="rgba(0,0,0,0.02)"/>
<rect x="136" y="368" width="36" height="36" rx="3" fill="rgba(0,0,0,0.02)"/>
<rect x="172" y="368" width="36" height="36" rx="3" fill="rgba(0,0,0,0.02)"/>
<rect x="208" y="368" width="36" height="36" rx="3" fill="rgba(40,108,68,0.55)"/>
<text x="226.0" y="390.0" font-family="serif" font-size="11" fill="#fcfcfc" text-anchor="middle">1</text>
<rect x="244" y="368" width="36" height="36" rx="3" fill="rgba(0,0,0,0.02)"/>
<rect x="280" y="368" width="36" height="36" rx="3" fill="rgba(0,0,0,0.02)"/>
<rect x="316" y="368" width="36" height="36" rx="3" fill="rgba(0,0,0,0.02)"/>
<rect x="352" y="368" width="36" height="36" rx="3" fill="rgba(0,0,0,0.02)"/>
<rect x="388" y="368" width="36" height="36" rx="3" fill="rgba(0,0,0,0.02)"/>
<rect x="424" y="368" width="36" height="36" rx="3" fill="rgba(0,0,0,0.02)"/>
<rect x="460" y="368" width="36" height="36" rx="3" fill="rgba(40,108,68,0.55)"/>
<text x="478.0" y="390.0" font-family="serif" font-size="11" fill="#fcfcfc" text-anchor="middle">1</text>
<rect x="100" y="404" width="36" height="36" rx="3" fill="rgba(0,0,0,0.02)"/>
<rect x="136" y="404" width="36" height="36" rx="3" fill="rgba(40,108,68,0.80)"/>
<text x="154.0" y="426.0" font-family="serif" font-size="11" fill="#fcfcfc" text-anchor="middle">2</text>
<rect x="172" y="404" width="36" height="36" rx="3" fill="rgba(40,108,68,0.55)"/>
<text x="190.0" y="426.0" font-family="serif" font-size="11" fill="#fcfcfc" text-anchor="middle">1</text>
<rect x="208" y="404" width="36" height="36" rx="3" fill="rgba(0,0,0,0.02)"/>
<rect x="244" y="404" width="36" height="36" rx="3" fill="rgba(0,0,0,0.02)"/>
<rect x="280" y="404" width="36" height="36" rx="3" fill="rgba(40,108,68,0.80)"/>
<text x="298.0" y="426.0" font-family="serif" font-size="11" fill="#fcfcfc" text-anchor="middle">2</text>
<rect x="316" y="404" width="36" height="36" rx="3" fill="rgba(0,0,0,0.02)"/>
<rect x="352" y="404" width="36" height="36" rx="3" fill="rgba(40,108,68,0.55)"/>
<text x="370.0" y="426.0" font-family="serif" font-size="11" fill="#fcfcfc" text-anchor="middle">1</text>
<rect x="388" y="404" width="36" height="36" rx="3" fill="rgba(0,0,0,0.02)"/>
<rect x="424" y="404" width="36" height="36" rx="3" fill="rgba(0,0,0,0.02)"/>
<rect x="460" y="404" width="36" height="36" rx="3" fill="rgba(0,0,0,0.02)"/>
<rect x="100" y="440" width="36" height="36" rx="3" fill="rgba(40,108,68,0.55)"/>
<text x="118.0" y="462.0" font-family="serif" font-size="11" fill="#fcfcfc" text-anchor="middle">1</text>
<rect x="136" y="440" width="36" height="36" rx="3" fill="rgba(40,108,68,0.80)"/>
<text x="154.0" y="462.0" font-family="serif" font-size="11" fill="#fcfcfc" text-anchor="middle">2</text>
<rect x="172" y="440" width="36" height="36" rx="3" fill="rgba(0,0,0,0.02)"/>
<rect x="208" y="440" width="36" height="36" rx="3" fill="rgba(40,108,68,0.55)"/>
<text x="226.0" y="462.0" font-family="serif" font-size="11" fill="#fcfcfc" text-anchor="middle">1</text>
<rect x="244" y="440" width="36" height="36" rx="3" fill="rgba(40,108,68,0.55)"/>
<text x="262.0" y="462.0" font-family="serif" font-size="11" fill="#fcfcfc" text-anchor="middle">1</text>
<rect x="280" y="440" width="36" height="36" rx="3" fill="rgba(0,0,0,0.02)"/>
<rect x="316" y="440" width="36" height="36" rx="3" fill="rgba(0,0,0,0.02)"/>
<rect x="352" y="440" width="36" height="36" rx="3" fill="rgba(0,0,0,0.02)"/>
<rect x="388" y="440" width="36" height="36" rx="3" fill="rgba(40,108,68,0.55)"/>
<text x="406.0" y="462.0" font-family="serif" font-size="11" fill="#fcfcfc" text-anchor="middle">1</text>
<rect x="424" y="440" width="36" height="36" rx="3" fill="rgba(0,0,0,0.02)"/>
<rect x="460" y="440" width="36" height="36" rx="3" fill="rgba(0,0,0,0.02)"/>
<text x="92" y="102.0" font-family="serif" font-size="11" fill="#111" text-anchor="end">assis</text>
<text x="92" y="138.0" font-family="serif" font-size="11" fill="#286c44" text-anchor="end">chat</text>
<text x="92" y="174.0" font-family="serif" font-size="11" fill="#286c44" text-anchor="end">chien</text>
<text x="92" y="210.0" font-family="serif" font-size="11" fill="#111" text-anchor="end">coussin</text>
<text x="92" y="246.0" font-family="serif" font-size="11" fill="#111" text-anchor="end">dormi</text>
<text x="92" y="282.0" font-family="serif" font-size="11" fill="#111" text-anchor="end">fui</text>
<text x="92" y="318.0" font-family="serif" font-size="11" fill="#111" text-anchor="end">lapin</text>
<text x="92" y="354.0" font-family="serif" font-size="11" fill="#111" text-anchor="end">poursuivi</text>
<text x="92" y="390.0" font-family="serif" font-size="11" fill="#111" text-anchor="end">repose</text>
<text x="92" y="426.0" font-family="serif" font-size="11" fill="#111" text-anchor="end">souris</text>
<text x="92" y="462.0" font-family="serif" font-size="11" fill="#111" text-anchor="end">tapis</text>
<text x="118.0" y="72" font-family="serif" font-size="11" fill="#111" text-anchor="start" transform="rotate(-50 118.0 72)">assis</text>
<text x="154.0" y="72" font-family="serif" font-size="11" fill="#286c44" text-anchor="start" transform="rotate(-50 154.0 72)">chat</text>
<text x="190.0" y="72" font-family="serif" font-size="11" fill="#286c44" text-anchor="start" transform="rotate(-50 190.0 72)">chien</text>
<text x="226.0" y="72" font-family="serif" font-size="11" fill="#111" text-anchor="start" transform="rotate(-50 226.0 72)">coussin</text>
<text x="262.0" y="72" font-family="serif" font-size="11" fill="#111" text-anchor="start" transform="rotate(-50 262.0 72)">dormi</text>
<text x="298.0" y="72" font-family="serif" font-size="11" fill="#111" text-anchor="start" transform="rotate(-50 298.0 72)">fui</text>
<text x="334.0" y="72" font-family="serif" font-size="11" fill="#111" text-anchor="start" transform="rotate(-50 334.0 72)">lapin</text>
<text x="370.0" y="72" font-family="serif" font-size="11" fill="#111" text-anchor="start" transform="rotate(-50 370.0 72)">poursuivi</text>
<text x="406.0" y="72" font-family="serif" font-size="11" fill="#111" text-anchor="start" transform="rotate(-50 406.0 72)">repose</text>
<text x="442.0" y="72" font-family="serif" font-size="11" fill="#111" text-anchor="start" transform="rotate(-50 442.0 72)">souris</text>
<text x="478.0" y="72" font-family="serif" font-size="11" fill="#111" text-anchor="start" transform="rotate(-50 478.0 72)">tapis</text>
</svg>
