<svg viewBox="0 0 600 450" xmlns="http://www.w3.org/2000/svg">
<rect x="0" y="0" width="600" height="450" fill="#fcfcfc" rx="4"/>
<line x1="15" y1="225.0" x2="585" y2="225.0" stroke="#ccc" stroke-width="0.4"/>
<line x1="300.0" y1="15" x2="300.0" y2="435" stroke="#ccc" stroke-width="0.4"/>
<circle cx="261.2" cy="150.2" r="2.5" fill="#777" opacity="0.7"/>
<circle cx="330.5" cy="252.2" r="3" fill="#286c44" opacity="0.7"/>
<circle cx="421.3" cy="254.0" r="2.5" fill="#777" opacity="0.7"/>
<circle cx="324.5" cy="227.1" r="2.5" fill="#777" opacity="0.7"/>
<circle cx="338.8" cy="198.7" r="2.5" fill="#777" opacity="0.7"/>
<circle cx="350.7" cy="202.5" r="3" fill="#286c44" opacity="0.7"/>
<circle cx="203.3" cy="287.2" r="2.5" fill="#777" opacity="0.7"/>
<circle cx="267.8" cy="166.6" r="2.5" fill="#777" opacity="0.7"/>
<circle cx="263.7" cy="195.9" r="2.5" fill="#777" opacity="0.7"/>
<circle cx="317.4" cy="240.1" r="2.5" fill="#777" opacity="0.7"/>
<circle cx="318.5" cy="178.1" r="3" fill="#286c44" opacity="0.7"/>
<circle cx="226.7" cy="263.0" r="3" fill="#286c44" opacity="0.7"/>
<circle cx="294.2" cy="225.9" r="2.5" fill="#777" opacity="0.7"/>
<circle cx="257.3" cy="256.3" r="2.5" fill="#777" opacity="0.7"/>
<circle cx="224.3" cy="173.0" r="2.5" fill="#777" opacity="0.7"/>
<circle cx="321.0" cy="182.2" r="2.5" fill="#777" opacity="0.7"/>
<circle cx="227.7" cy="274.6" r="2.5" fill="#777" opacity="0.7"/>
<circle cx="292.0" cy="100.7" r="2.5" fill="#777" opacity="0.7"/>
<circle cx="249.3" cy="141.4" r="2.5" fill="#777" opacity="0.7"/>
<circle cx="234.9" cy="197.4" r="2.5" fill="#777" opacity="0.7"/>
<circle cx="271.9" cy="159.7" r="2.5" fill="#777" opacity="0.7"/>
<circle cx="231.2" cy="288.8" r="2.5" fill="#777" opacity="0.7"/>
<circle cx="238.8" cy="199.1" r="2.5" fill="#777" opacity="0.7"/>
<circle cx="140.0" cy="311.8" r="2.5" fill="#777" opacity="0.7"/>
<circle cx="246.4" cy="149.9" r="2.5" fill="#777" opacity="0.7"/>
<circle cx="350.6" cy="191.1" r="2.5" fill="#777" opacity="0.7"/>
<circle cx="237.5" cy="217.2" r="2.5" fill="#777" opacity="0.7"/>
<circle cx="254.9" cy="194.4" r="2.5" fill="#777" opacity="0.7"/>
<circle cx="303.1" cy="133.7" r="2.5" fill="#777" opacity="0.7"/>
<circle cx="297.3" cy="153.5" r="2.5" fill="#777" opacity="0.7"/>
<circle cx="324.1" cy="276.7" r="2.5" fill="#777" opacity="0.7"/>
<circle cx="312.0" cy="140.1" r="2.5" fill="#777" opacity="0.7"/>
<circle cx="199.8" cy="196.3" r="2.5" fill="#777" opacity="0.7"/>
<circle cx="315.2" cy="143.5" r="2.5" fill="#777" opacity="0.7"/>
<circle cx="308.2" cy="198.5" r="2.5" fill="#777" opacity="0.7"/>
<circle cx="231.3" cy="145.1" r="2.5" fill="#777" opacity="0.7"/>
<circle cx="291.3" cy="168.7" r="3" fill="#286c44" opacity="0.7"/>
<circle cx="262.3" cy="150.8" r="2.5" fill="#777" opacity="0.7"/>
<text x="254.2" y="109.2" fill="#777" font-size="10" font-weight="400" font-family="serif" text-anchor="end">femme</text>
<text x="337.5" y="267.2" fill="#286c44" font-size="10" font-weight="600" font-family="serif" text-anchor="start">mer</text>
<text x="428.3" y="257.0" fill="#777" font-size="10" font-weight="400" font-family="serif" text-anchor="start">bord</text>
<text x="331.5" y="230.1" fill="#777" font-size="10" font-weight="400" font-family="serif" text-anchor="start">nef</text>
<text x="345.8" y="213.7" fill="#777" font-size="10" font-weight="400" font-family="serif" text-anchor="start">membres</text>
<text x="357.7" y="229.5" fill="#286c44" font-size="10" font-weight="600" font-family="serif" text-anchor="start">écumeuse</text>
<text x="196.3" y="322.2" fill="#777" font-size="10" font-weight="400" font-family="serif" text-anchor="end">heureux</text>
<text x="260.8" y="169.6" fill="#777" font-size="10" font-weight="400" font-family="serif" text-anchor="end">jeune</text>
<text x="256.7" y="214.9" fill="#777" font-size="10" font-weight="400" font-family="serif" text-anchor="end">fils</text>
<text x="324.4" y="247.1" fill="#777" font-size="10" font-weight="400" font-family="serif" text-anchor="start">noire</text>
<text x="325.5" y="165.1" fill="#286c44" font-size="10" font-weight="600" font-family="serif" text-anchor="start">divin</text>
<text x="219.7" y="278.0" fill="#286c44" font-size="10" font-weight="600" font-family="serif" text-anchor="end">dieux</text>
<text x="287.2" y="228.9" fill="#777" font-size="10" font-weight="400" font-family="serif" text-anchor="end">terre</text>
<text x="250.3" y="263.3" fill="#777" font-size="10" font-weight="400" font-family="serif" text-anchor="end">lointaine</text>
<text x="217.3" y="180.0" fill="#777" font-size="10" font-weight="400" font-family="serif" text-anchor="end">père</text>
<text x="328.0" y="181.2" fill="#777" font-size="10" font-weight="400" font-family="serif" text-anchor="start">le</text>
<text x="220.7" y="293.6" fill="#777" font-size="10" font-weight="400" font-family="serif" text-anchor="end">immortels</text>
<text x="285.0" y="95.7" fill="#777" font-size="10" font-weight="400" font-family="serif" text-anchor="end">vierge</text>
<text x="242.3" y="92.4" fill="#777" font-size="10" font-weight="400" font-family="serif" text-anchor="end">chère</text>
<text x="227.9" y="228.4" fill="#777" font-size="10" font-weight="400" font-family="serif" text-anchor="end">natale</text>
<text x="264.9" y="154.7" fill="#777" font-size="10" font-weight="400" font-family="serif" text-anchor="end">lui</text>
<text x="224.2" y="307.8" fill="#777" font-size="10" font-weight="400" font-family="serif" text-anchor="end">châtié</text>
<text x="231.8" y="214.1" fill="#777" font-size="10" font-weight="400" font-family="serif" text-anchor="end">homme</text>
<text x="133.0" y="314.8" fill="#777" font-size="10" font-weight="400" font-family="serif" text-anchor="end">savent</text>
<text x="239.4" y="152.9" fill="#777" font-size="10" font-weight="400" font-family="serif" text-anchor="end">subtil</text>
<text x="357.6" y="182.1" fill="#777" font-size="10" font-weight="400" font-family="serif" text-anchor="start">façon</text>
<text x="230.5" y="244.2" fill="#777" font-size="10" font-weight="400" font-family="serif" text-anchor="end">patrie</text>
<text x="247.9" y="197.4" fill="#777" font-size="10" font-weight="400" font-family="serif" text-anchor="end">illustre</text>
<text x="310.1" y="120.7" fill="#777" font-size="10" font-weight="400" font-family="serif" text-anchor="start">amphimédôn</text>
<text x="290.3" y="140.5" fill="#777" font-size="10" font-weight="400" font-family="serif" text-anchor="end">inutiles</text>
<text x="331.1" y="283.7" fill="#777" font-size="10" font-weight="400" font-family="serif" text-anchor="start">flots</text>
<text x="319.0" y="151.1" fill="#777" font-size="10" font-weight="400" font-family="serif" text-anchor="start">patient</text>
<text x="192.8" y="191.3" fill="#777" font-size="10" font-weight="400" font-family="serif" text-anchor="end">plût</text>
<text x="322.2" y="134.5" fill="#777" font-size="10" font-weight="400" font-family="serif" text-anchor="start">belle</text>
<text x="315.2" y="197.5" fill="#777" font-size="10" font-weight="400" font-family="serif" text-anchor="start">autolykos</text>
<text x="224.3" y="136.1" fill="#777" font-size="10" font-weight="400" font-family="serif" text-anchor="end">fille</text>
<text x="284.3" y="183.7" fill="#286c44" font-size="10" font-weight="600" font-family="serif" text-anchor="end">odysseus</text>
<text x="255.3" y="125.8" fill="#777" font-size="10" font-weight="400" font-family="serif" text-anchor="end">cher</text>
</svg>
